# xmcd
#
# Track frame offsets:
#	183
#	14598
#	29955
#	44325
#	57860
#	73130
#	86570
#	106390
#	120900
#	138113
#
# Disc length: 2012 seconds
#
# Revision: 0
# Processed by: cddbd v1.4PL0 Copyright (c) Steve Scherf et al.
# Submitted via: dBpowerAMP V4.0
#
DISCID=8907da0a
DTITLE=Don Williams - Traces
DYEAR=1987
DGENRE=Country
TTITLE0=Desperately
TTITLE1=Easy Touch
TTITLE2=Come From The Heart
TTITLE3=Running Out Of Reasons To Run
TTITLE4=I Wouldn't Be A Man
TTITLE5=Looking Back
TTITLE6='Til I Can't Take It Anymore
TTITLE7=Another Place, Another Time
TTITLE8=Old Coyote Town
TTITLE9=You Love Me Through It All
EXTD=
EXTT0=
EXTT1=
EXTT2=
EXTT3=
EXTT4=
EXTT5=
EXTT6=
EXTT7=
EXTT8=
EXTT9=
PLAYORDER=
